<?xml version="1.0" encoding="UTF-8" standalone="no"?>
<!DOCTYPE svg PUBLIC "-//W3C//DTD SVG 1.1//EN" "http://www.w3.org/Graphics/SVG/1.1/DTD/svg11.dtd">
<svg width="100%" height="100%" viewBox="0 0 1920 1080" version="1.1" xmlns="http://www.w3.org/2000/svg" xmlns:xlink="http://www.w3.org/1999/xlink" xml:space="preserve" xmlns:serif="http://www.serif.com/" style="fill-rule:evenodd;clip-rule:evenodd;stroke-linejoin:round;stroke-miterlimit:2;">
    <path d="M1711.25,1080C1711.94,1065.82 1712.29,1051.55 1712.29,1037.19C1712.29,590.846 1375.2,228.468 960,228.468C830.866,228.468 709.288,263.521 603.056,325.252C549.297,289.395 541.793,178.54 534.109,139.491C532.428,131.01 525.137,123.813 514.863,120.496C504.59,117.179 492.816,118.218 483.784,123.24C332.553,206.509 302.823,455.118 344.66,572.08C278.971,672.281 225.468,789.214 207.71,915.712L207.71,1080L-0,1080L-0,-0L1920,-0L1920,1080L1711.25,1080ZM422.65,1080L422.65,1037.19C422.65,753.618 606.962,516.718 851.695,461.892L923.792,560.79C932.354,572.534 945.779,579.442 960.034,579.438C974.289,579.434 987.712,572.519 996.267,560.77L1068.27,461.885C1313.02,516.698 1497.35,753.606 1497.35,1037.19L1497.35,1080L422.65,1080Z"/>
</svg>
