<?xml version="1.0" encoding="UTF-8" standalone="no"?>
<!DOCTYPE svg PUBLIC "-//W3C//DTD SVG 1.1//EN" "http://www.w3.org/Graphics/SVG/1.1/DTD/svg11.dtd">
<svg width="100%" height="100%" viewBox="0 0 1920 1080" version="1.1" xmlns="http://www.w3.org/2000/svg" xmlns:xlink="http://www.w3.org/1999/xlink" xml:space="preserve" xmlns:serif="http://www.serif.com/" style="fill-rule:evenodd;clip-rule:evenodd;stroke-linejoin:round;stroke-miterlimit:2;">
    <path d="M185.997,1080c-0,0 21.437,-162.524 21.713,-164.288c14.467,-92.652 71.261,-243.431 136.95,-343.632c-41.837,-116.962 -12.107,-365.571 139.124,-448.84c9.032,-5.022 20.806,-6.061 31.079,-2.744c10.274,3.317 17.565,10.514 19.246,18.995c7.684,39.049 15.188,149.904 68.947,185.761c106.232,-61.731 227.81,-96.784 356.944,-96.784c415.2,0 752.29,362.378 752.29,808.725c0,14.359 -0.349,28.631 -1.038,42.807l-213.902,0l0,-42.807c0,-283.587 -184.328,-520.495 -429.076,-575.308l-72.007,98.885c-8.555,11.749 -21.978,18.664 -36.233,18.668c-14.255,0.004 -27.68,-6.904 -36.242,-18.648l-72.097,-98.898c-244.733,54.826 -429.045,291.726 -429.045,575.301l-0,42.807l-236.653,0Z" style="fill:#fff;"/>
   <defs>
   <clipPath id="CaneCut" clipPathUnits="objectBoundingBox">
    <path d="M1711.25,1080c0.689,-14.176 1.038,-28.448 1.038,-42.807c0,-446.347 -337.09,-808.725 -752.29,-808.725c-129.134,0 -250.712,35.053 -356.944,96.784c-53.759,-35.857 -61.263,-146.712 -68.947,-185.761c-1.681,-8.481 -8.972,-15.678 -19.246,-18.995c-10.273,-3.317 -22.047,-2.278 -31.079,2.744c-151.231,83.269 -180.961,331.878 -139.124,448.84c-65.689,100.201 -122.483,250.98 -136.95,343.632c-0.276,1.764 -21.713,164.288 -21.713,164.288l-185.997,0l-0,-1080l1920,-0l-0,1080l-208.748,0Zm-1288.6,0l-0,-42.807c-0,-283.575 184.312,-520.475 429.045,-575.301l72.097,98.898c8.562,11.744 21.987,18.652 36.242,18.648c14.255,-0.004 27.678,-6.919 36.233,-18.668l72.007,-98.885c244.748,54.813 429.076,291.721 429.076,575.308l0,42.807l-1074.7,0Z"/>
    </clipPath>
    </defs>
</svg>
