<?xml version="1.0" encoding="UTF-8" standalone="no"?>
<!DOCTYPE svg PUBLIC "-//W3C//DTD SVG 1.1//EN" "http://www.w3.org/Graphics/SVG/1.1/DTD/svg11.dtd">
<svg width="100%" height="100%" viewBox="0 0 300 300" version="1.1" xmlns="http://www.w3.org/2000/svg" xmlns:xlink="http://www.w3.org/1999/xlink" xml:space="preserve" xmlns:serif="http://www.serif.com/" style="fill-rule:evenodd;clip-rule:evenodd;stroke-linejoin:round;stroke-miterlimit:2;">
    <g transform="matrix(0.912663,0,0,0.957351,-97.5158,-85.3107)">
        <rect x="106.848" y="89.111" width="328.708" height="313.365" style="fill:rgb(255,0,0);"/>
    </g>
    <g transform="matrix(0.827971,0,0,0.827971,-155.288,-22.249)">
        <g transform="matrix(1,0,0,1,-5.1347,-19.2323)">
            <g transform="matrix(74.1233,0,0,74.1233,505.861,397.29)">
            </g>
            <text x="267.53px" y="397.29px" style="font-family:'Haettenschweiler', sans-serif;font-size:74.123px;">Disclaimer</text>
        </g>
        <path d="M373.3,202.446C372.829,202.712 372.359,202.981 371.891,203.253C362.805,197.193 361.536,178.456 360.237,171.856C359.953,170.423 358.721,169.206 356.985,168.646C355.248,168.085 353.258,168.261 351.732,169.109C326.171,183.183 321.146,225.203 328.217,244.972C317.849,260.788 309.276,279.07 305.743,298.832C305.162,298.074 304.587,297.316 304.017,296.559C281.497,267.479 259.667,237.869 237.507,208.519C244.427,201.809 252.097,192.669 262.877,194.419C280.747,195.319 292.747,210.539 308.777,216.269C312.767,161.859 310.487,52.209 310.487,52.209L339.794,51.641L339.794,150.582C339.794,152.477 341.332,154.015 343.227,154.015L350.093,154.015C351.988,154.015 353.526,152.477 353.526,150.582L352.855,37.438L381.927,37.456L381.927,156.199C381.927,158.094 383.465,159.633 385.36,159.633L392.226,159.633C394.121,159.633 395.659,158.094 395.659,156.199L395.887,52.379L425.087,52.409L425.087,52.42L424.996,53.208L424.996,160.569C424.996,162.464 426.534,164.002 428.429,164.002L435.295,164.002C437.19,164.002 438.728,162.464 438.728,160.569L438.728,79.4L470.897,79.549L470.897,193.344C458.699,189.156 445.704,186.895 432.221,186.895C423.747,186.895 415.465,187.788 407.453,189.491L407.453,228.07C409.576,227.412 411.732,226.837 413.915,226.348L426.101,243.064C427.548,245.048 429.817,246.216 432.227,246.215C434.636,246.215 436.905,245.046 438.351,243.06L450.521,226.347C457.652,227.944 464.48,230.455 470.897,233.764L470.897,263.746C470.897,279.506 464.634,294.62 453.488,305.762C442.342,316.904 427.225,323.16 411.465,323.154C386.145,323.16 358.549,323.158 341.4,323.135C341.522,293.097 353.879,266.193 373.3,248.072L373.3,202.446ZM402.731,174.884L378.021,174.884L378.021,275.633L402.731,275.633L402.731,174.884ZM402.731,309.971L402.731,291.85L378.021,291.85L378.021,309.971L402.731,309.971Z"/>
    </g>
</svg>
